<svg width="172" height="86" viewBox="0 0 172 86" fill="none" xmlns="http://www.w3.org/2000/svg">
<path d="M32.6758 38H14.6484C12.7083 38 10.944 37.6354 9.35547 36.9062C7.76693 36.1771 6.40625 35.181 5.27344 33.918C4.15365 32.6549 3.28776 31.1706 2.67578 29.4648C2.0638 27.7591 1.75781 25.9362 1.75781 23.9961C1.75781 22.069 2.0638 20.2591 2.67578 18.5664C3.28776 16.8607 4.15365 15.3763 5.27344 14.1133C6.40625 12.8372 7.76693 11.8346 9.35547 11.1055C10.944 10.3633 12.7083 9.99219 14.6484 9.99219H32.6758V13.9961H14.6484C13.2682 13.9961 12.0247 14.263 10.918 14.7969C9.82422 15.3177 8.89323 16.0339 8.125 16.9453C7.36979 17.8438 6.78385 18.8984 6.36719 20.1094C5.96354 21.3203 5.76172 22.6159 5.76172 23.9961C5.76172 25.3763 5.96354 26.6784 6.36719 27.9023C6.78385 29.1133 7.36979 30.1745 8.125 31.0859C8.89323 31.9844 9.82422 32.694 10.918 33.2148C12.0247 33.7357 13.2682 33.9961 14.6484 33.9961H32.6758V38Z" fill="#212121"/>
<path d="M42.0508 11.0078C42.0508 11.4245 41.9727 11.8151 41.8164 12.1797C41.6602 12.5312 41.4453 12.8438 41.1719 13.1172C40.8984 13.3906 40.5794 13.6055 40.2148 13.7617C39.8503 13.918 39.4661 13.9961 39.0625 13.9961C38.6458 13.9961 38.2552 13.918 37.8906 13.7617C37.526 13.6055 37.207 13.3906 36.9336 13.1172C36.6602 12.8438 36.4453 12.5312 36.2891 12.1797C36.1328 11.8151 36.0547 11.4245 36.0547 11.0078C36.0547 10.6042 36.1328 10.2201 36.2891 9.85547C36.4453 9.49089 36.6602 9.17188 36.9336 8.89844C37.207 8.625 37.526 8.41016 37.8906 8.25391C38.2552 8.08464 38.6458 8 39.0625 8C39.4661 8 39.8503 8.08464 40.2148 8.25391C40.5794 8.41016 40.8984 8.625 41.1719 8.89844C41.4453 9.17188 41.6602 9.49089 41.8164 9.85547C41.9727 10.2201 42.0508 10.6042 42.0508 11.0078ZM41.0547 38H37.0508V16.0078H41.0547V38Z" fill="#212121"/>
<path d="M54.5508 38H50.5469V19.9922H44.5508V16.0078H50.5469V8H54.5508V16.0078H68.5547V19.9922H54.5508V38Z" fill="#212121"/>
<path d="M97.2656 38.9961C97.2656 39.9727 97.0833 40.8841 96.7188 41.7305C96.3542 42.5768 95.8529 43.319 95.2148 43.957C94.5898 44.5951 93.8477 45.0964 92.9883 45.4609C92.1419 45.8255 91.237 46.0078 90.2734 46.0078H74.2773V42.0039H90.2734C90.6771 42.0039 91.0612 41.9258 91.4258 41.7695C91.7904 41.6133 92.1094 41.3984 92.3828 41.125C92.6562 40.8516 92.8711 40.5326 93.0273 40.168C93.1836 39.8034 93.2617 39.4128 93.2617 38.9961V38H82.2656C80.7552 38 79.3359 37.7135 78.0078 37.1406C76.6797 36.5547 75.5208 35.7669 74.5312 34.7773C73.5547 33.7747 72.7799 32.6094 72.207 31.2812C71.6341 29.9401 71.3477 28.5143 71.3477 27.0039V16.0078H75.3516V27.0039C75.3516 27.9674 75.5273 28.8724 75.8789 29.7188C76.2435 30.5521 76.7383 31.2878 77.3633 31.9258C77.9883 32.5508 78.7174 33.0521 79.5508 33.4297C80.3971 33.7943 81.3021 33.9831 82.2656 33.9961H93.2617V16.0078H97.2656V38.9961Z" fill="#212121"/>
<path d="M39.4336 65.9219C39.4336 67.3151 39.1667 68.6237 38.6328 69.8477C38.112 71.0716 37.3958 72.1393 36.4844 73.0508C35.5729 73.9622 34.5052 74.6849 33.2812 75.2188C32.0573 75.7396 30.7487 76 29.3555 76C28.5221 76 27.7148 75.9089 26.9336 75.7266C26.1654 75.5312 25.4362 75.2643 24.7461 74.9258C24.056 74.5742 23.4115 74.151 22.8125 73.6562C22.2266 73.1615 21.6992 72.6081 21.2305 71.9961C20.306 73.2201 19.1471 74.1966 17.7539 74.9258C16.3607 75.6419 14.8307 76 13.1641 76C11.7708 76 10.4622 75.7396 9.23828 75.2188C8.01432 74.6849 6.94661 73.9622 6.03516 73.0508C5.1237 72.1393 4.40104 71.0716 3.86719 69.8477C3.34635 68.6237 3.08594 67.3151 3.08594 65.9219V47.9922H7.07031V65.9219C7.07031 66.7682 7.22656 67.5625 7.53906 68.3047C7.86458 69.0339 8.30078 69.6719 8.84766 70.2188C9.40755 70.7656 10.0521 71.2018 10.7812 71.5273C11.5234 71.8398 12.3177 71.9961 13.1641 71.9961C13.9844 71.9961 14.7526 71.8464 15.4688 71.5469C16.1979 71.2474 16.8294 70.8372 17.3633 70.3164C17.9102 69.7956 18.3464 69.1836 18.6719 68.4805C19.0104 67.7643 19.1992 67.0026 19.2383 66.1953V47.9922H23.2812V65.9219C23.2812 66.7682 23.4375 67.5625 23.75 68.3047C24.0755 69.0339 24.5117 69.6719 25.0586 70.2188C25.6055 70.7656 26.2435 71.2018 26.9727 71.5273C27.7148 71.8398 28.5091 71.9961 29.3555 71.9961C30.1888 71.9961 30.9766 71.8398 31.7188 71.5273C32.4609 71.2018 33.1055 70.7656 33.6523 70.2188C34.2122 69.6719 34.6484 69.0339 34.9609 68.3047C35.2865 67.5625 35.4492 66.7682 35.4492 65.9219V47.9922H39.4336V65.9219Z" fill="#212121"/>
<path d="M71.3477 76H67.3438V65.0039C67.3438 64.0404 67.1615 63.1354 66.7969 62.2891C66.4323 61.4427 65.9375 60.707 65.3125 60.082C64.6875 59.444 63.9518 58.9427 63.1055 58.5781C62.2721 58.2005 61.3737 58.0052 60.4102 57.9922H49.4141V76H45.4102V46H49.4141V54.0078H60.4102C61.9206 54.0078 63.3398 54.3008 64.668 54.8867C65.9961 55.4596 67.1549 56.2474 68.1445 57.25C69.1341 58.2396 69.9154 59.4049 70.4883 60.7461C71.0612 62.0742 71.3477 63.4935 71.3477 65.0039V76Z" fill="#212121"/>
<path d="M102.344 61C102.344 61.9766 102.161 62.888 101.797 63.7344C101.432 64.5807 100.931 65.3229 100.293 65.9609C99.668 66.5859 98.9258 67.0807 98.0664 67.4453C97.2201 67.8099 96.3151 67.9922 95.3516 67.9922H80.0195C80.306 68.5781 80.6641 69.1185 81.0938 69.6133C81.5234 70.1081 82.0052 70.5312 82.5391 70.8828C83.0729 71.2344 83.6523 71.5078 84.2773 71.7031C84.9154 71.8984 85.5794 71.9961 86.2695 71.9961H99.3555V76H86.2695C84.7591 75.987 83.3398 75.694 82.0117 75.1211C80.6836 74.5352 79.5247 73.7474 78.5352 72.7578C77.5586 71.7552 76.7839 70.5898 76.2109 69.2617C75.638 67.9336 75.3516 66.5143 75.3516 65.0039C75.3516 63.4935 75.638 62.0742 76.2109 60.7461C76.7839 59.418 77.5586 58.2591 78.5352 57.2695C79.5247 56.2669 80.6836 55.4792 82.0117 54.9062C83.3398 54.3203 84.7591 54.0208 86.2695 54.0078H95.3516C96.3151 54.0078 97.2201 54.1901 98.0664 54.5547C98.9258 54.9193 99.668 55.4206 100.293 56.0586C100.931 56.6836 101.432 57.4193 101.797 58.2656C102.161 59.112 102.344 60.0234 102.344 61ZM95.3516 64.0078C95.7552 64.0078 96.1393 63.9297 96.5039 63.7734C96.8685 63.6172 97.1875 63.4023 97.4609 63.1289C97.7344 62.8555 97.9492 62.5365 98.1055 62.1719C98.2617 61.8073 98.3398 61.4167 98.3398 61C98.3398 60.5964 98.2617 60.2122 98.1055 59.8477C97.9492 59.4831 97.7344 59.1641 97.4609 58.8906C97.1875 58.6172 96.8685 58.4023 96.5039 58.2461C96.1393 58.0768 95.7552 57.9922 95.3516 57.9922H86.2695C85.3841 57.9922 84.5508 58.1484 83.7695 58.4609C83.0013 58.7734 82.3112 59.2031 81.6992 59.75C81.1003 60.2839 80.599 60.9219 80.1953 61.6641C79.8047 62.3932 79.5508 63.1745 79.4336 64.0078H95.3516Z" fill="#212121"/>
<path d="M131.875 61C131.875 61.9766 131.693 62.888 131.328 63.7344C130.964 64.5807 130.462 65.3229 129.824 65.9609C129.199 66.5859 128.457 67.0807 127.598 67.4453C126.751 67.8099 125.846 67.9922 124.883 67.9922H109.551C109.837 68.5781 110.195 69.1185 110.625 69.6133C111.055 70.1081 111.536 70.5312 112.07 70.8828C112.604 71.2344 113.184 71.5078 113.809 71.7031C114.447 71.8984 115.111 71.9961 115.801 71.9961H128.887V76H115.801C114.29 75.987 112.871 75.694 111.543 75.1211C110.215 74.5352 109.056 73.7474 108.066 72.7578C107.09 71.7552 106.315 70.5898 105.742 69.2617C105.169 67.9336 104.883 66.5143 104.883 65.0039C104.883 63.4935 105.169 62.0742 105.742 60.7461C106.315 59.418 107.09 58.2591 108.066 57.2695C109.056 56.2669 110.215 55.4792 111.543 54.9062C112.871 54.3203 114.29 54.0208 115.801 54.0078H124.883C125.846 54.0078 126.751 54.1901 127.598 54.5547C128.457 54.9193 129.199 55.4206 129.824 56.0586C130.462 56.6836 130.964 57.4193 131.328 58.2656C131.693 59.112 131.875 60.0234 131.875 61ZM124.883 64.0078C125.286 64.0078 125.671 63.9297 126.035 63.7734C126.4 63.6172 126.719 63.4023 126.992 63.1289C127.266 62.8555 127.48 62.5365 127.637 62.1719C127.793 61.8073 127.871 61.4167 127.871 61C127.871 60.5964 127.793 60.2122 127.637 59.8477C127.48 59.4831 127.266 59.1641 126.992 58.8906C126.719 58.6172 126.4 58.4023 126.035 58.2461C125.671 58.0768 125.286 57.9922 124.883 57.9922H115.801C114.915 57.9922 114.082 58.1484 113.301 58.4609C112.533 58.7734 111.842 59.2031 111.23 59.75C110.632 60.2839 110.13 60.9219 109.727 61.6641C109.336 62.3932 109.082 63.1745 108.965 64.0078H124.883Z" fill="#212121"/>
<path d="M143.652 76H142.656C141.68 76 140.768 75.8177 139.922 75.4531C139.076 75.0885 138.333 74.5938 137.695 73.9688C137.057 73.3307 136.556 72.5885 136.191 71.7422C135.827 70.8828 135.645 69.9714 135.645 69.0078V46H139.648V69.0078C139.648 69.4245 139.727 69.8151 139.883 70.1797C140.039 70.5312 140.254 70.8438 140.527 71.1172C140.801 71.3906 141.12 71.6055 141.484 71.7617C141.849 71.918 142.24 71.9961 142.656 71.9961H143.652V76Z" fill="#212121"/>
<path d="M170.098 69.0078C170.098 69.9714 169.915 70.8828 169.551 71.7422C169.186 72.5885 168.685 73.3307 168.047 73.9688C167.422 74.5938 166.68 75.0885 165.82 75.4531C164.974 75.8177 164.069 76 163.105 76H146.094V71.9961H163.105C163.509 71.9961 163.893 71.918 164.258 71.7617C164.622 71.6055 164.941 71.3906 165.215 71.1172C165.488 70.8438 165.703 70.5312 165.859 70.1797C166.016 69.8151 166.094 69.4245 166.094 69.0078C166.094 68.6042 166.016 68.2201 165.859 67.8555C165.703 67.4909 165.488 67.1719 165.215 66.8984C164.941 66.625 164.622 66.4102 164.258 66.2539C163.893 66.0846 163.509 66 163.105 66H152.09C151.257 66 150.475 65.8438 149.746 65.5312C149.017 65.2188 148.379 64.7956 147.832 64.2617C147.298 63.7148 146.875 63.0768 146.562 62.3477C146.25 61.6185 146.094 60.8372 146.094 60.0039C146.094 59.1706 146.25 58.3893 146.562 57.6602C146.875 56.931 147.298 56.2995 147.832 55.7656C148.379 55.2188 149.017 54.7891 149.746 54.4766C150.475 54.1641 151.257 54.0078 152.09 54.0078H168.105V57.9922H152.09C151.53 57.9922 151.055 58.1875 150.664 58.5781C150.286 58.9557 150.098 59.431 150.098 60.0039C150.098 60.5638 150.286 61.0391 150.664 61.4297C151.055 61.8073 151.53 61.9961 152.09 61.9961H163.105C164.069 61.9961 164.974 62.1784 165.82 62.543C166.68 62.9076 167.422 63.4089 168.047 64.0469C168.685 64.6849 169.186 65.4271 169.551 66.2734C169.915 67.1198 170.098 68.0312 170.098 69.0078Z" fill="#212121"/>
<circle cx="39" cy="11" r="3" fill="#DD2255"/>
<circle cx="105.134" cy="45.4962" r="3" transform="rotate(-32.0298 105.134 45.4962)" fill="#DD2255"/>
<circle cx="117.851" cy="37.5407" r="6" transform="rotate(-32.0298 117.851 37.5407)" fill="#DD2255"/>
<circle cx="135.654" cy="26.4032" r="9" transform="rotate(-32.0298 135.654 26.4032)" fill="#DD2255"/>
</svg>
