<svg width="111" height="56" viewBox="0 0 111 56" fill="none" xmlns="http://www.w3.org/2000/svg" style="background-color: white;">
<path d="M21.0686 24.7442H9.44488C8.19394 24.7442 7.05636 24.5068 6.03211 24.0319C5.00785 23.5572 4.13052 22.9085 3.4001 22.0861C2.67809 21.2636 2.11978 20.2971 1.72519 19.1864C1.3306 18.0757 1.1333 16.8887 1.1333 15.6254C1.1333 14.3705 1.3306 13.192 1.72519 12.0897C2.11978 10.979 2.67809 10.0125 3.4001 9.19004C4.13052 8.3591 5.00785 7.70624 6.03211 7.23148C7.05636 6.74818 8.19394 6.50653 9.44488 6.50653H21.0686V9.11373H9.44488C8.55496 9.11373 7.75317 9.28752 7.0396 9.63518C6.33435 9.9743 5.73407 10.4407 5.23873 11.0341C4.75179 11.6192 4.37398 12.3059 4.10533 13.0945C3.84507 13.883 3.71494 14.7266 3.71494 15.6254C3.71494 16.5241 3.84507 17.372 4.10533 18.1689C4.37398 18.9575 4.75179 19.6485 5.23873 20.242C5.73407 20.827 6.33435 21.2891 7.0396 21.6282C7.75317 21.9674 8.55496 22.137 9.44488 22.137H21.0686V24.7442Z" fill="#212121"/>
<path d="M27.1135 7.16786C27.1135 7.4392 27.0631 7.69354 26.9623 7.93095C26.8616 8.15984 26.7231 8.36339 26.5468 8.54142C26.3704 8.71945 26.1647 8.85938 25.9297 8.96109C25.6946 9.06287 25.4469 9.11373 25.1867 9.11373C24.918 9.11373 24.6661 9.06287 24.4311 8.96109C24.196 8.85938 23.9903 8.71945 23.814 8.54142C23.6377 8.36339 23.4992 8.15984 23.3985 7.93095C23.2977 7.69354 23.2473 7.4392 23.2473 7.16786C23.2473 6.90505 23.2977 6.65494 23.3985 6.4175C23.4992 6.1801 23.6377 5.97237 23.814 5.79432C23.9903 5.61627 24.196 5.47637 24.4311 5.37463C24.6661 5.2644 24.918 5.20929 25.1867 5.20929C25.4469 5.20929 25.6946 5.2644 25.9297 5.37463C26.1647 5.47637 26.3704 5.61627 26.5468 5.79432C26.7231 5.97237 26.8616 6.1801 26.9623 6.4175C27.0631 6.65494 27.1135 6.90505 27.1135 7.16786ZM26.4712 24.7442H23.8896V10.4237H26.4712V24.7442Z" fill="#212121"/>
<path d="M35.1733 24.7442H32.5916V13.0182H28.7255V10.4237H32.5916V5.20929H35.1733V10.4237H44.2027V13.0182H35.1733V24.7442Z" fill="#212121"/>
<path d="M62.7149 25.3928C62.7149 26.0287 62.5973 26.6222 62.3623 27.1733C62.1272 27.7244 61.804 28.2077 61.3925 28.6232C60.9896 29.0387 60.5111 29.3651 59.9569 29.6024C59.4112 29.8399 58.8277 29.9586 58.2064 29.9586H47.8925V27.3514H58.2064C58.4667 27.3514 58.7144 27.3005 58.9495 27.1987C59.1846 27.097 59.3902 26.9571 59.5665 26.7791C59.7428 26.601 59.8814 26.3933 59.9821 26.1559C60.0829 25.9185 60.1332 25.6641 60.1332 25.3928V24.7442H53.0432C52.0693 24.7442 51.1542 24.5576 50.2978 24.1846C49.4415 23.8031 48.6943 23.2901 48.0562 22.6457C47.4266 21.9928 46.927 21.234 46.5576 20.3691C46.1882 19.4959 46.0035 18.5674 46.0035 17.5839V10.4237H48.5852V17.5839C48.5852 18.2113 48.6985 18.8006 48.9252 19.3518C49.1602 19.8944 49.4793 20.3734 49.8823 20.7889C50.2853 21.1959 50.7554 21.5223 51.2927 21.7682C51.8384 22.0056 52.4219 22.1285 53.0432 22.137H60.1332V10.4237H62.7149V25.3928Z" fill="#212121"/>
<path d="M25.4259 42.9259C25.4259 43.8331 25.2539 44.6852 24.9096 45.4822C24.5738 46.2792 24.112 46.9744 23.5244 47.568C22.9367 48.1614 22.2482 48.632 21.459 48.9797C20.6699 49.3188 19.8261 49.4884 18.9278 49.4884C18.3904 49.4884 17.8699 49.4291 17.3662 49.3103C16.8709 49.1831 16.4007 49.0093 15.9558 48.7889C15.5108 48.5599 15.0952 48.2844 14.709 47.9622C14.3312 47.64 13.9912 47.2797 13.689 46.8812C13.0929 47.6782 12.3456 48.3141 11.4473 48.7889C10.549 49.2552 9.56252 49.4884 8.48793 49.4884C7.58956 49.4884 6.7458 49.3188 5.95665 48.9797C5.16746 48.632 4.47902 48.1614 3.89134 47.568C3.30365 46.9744 2.83769 46.2792 2.49348 45.4822C2.15765 44.6852 1.98975 43.8331 1.98975 42.9259V31.2507H4.55878V42.9259C4.55878 43.477 4.65953 43.9942 4.86102 44.4775C5.07091 44.9523 5.35216 45.3677 5.70478 45.7239C6.06579 46.0799 6.48138 46.364 6.95149 46.5759C7.43004 46.7794 7.94219 46.8812 8.48793 46.8812C9.01684 46.8812 9.51216 46.7837 9.97395 46.5887C10.4441 46.3937 10.8512 46.1265 11.1955 45.7874C11.5481 45.4483 11.8294 45.0498 12.0392 44.592C12.2575 44.1256 12.3792 43.6296 12.4044 43.1039V31.2507H15.0112V42.9259C15.0112 43.477 15.112 43.9942 15.3135 44.4775C15.5234 44.9523 15.8046 45.3677 16.1573 45.7239C16.5099 46.0799 16.9213 46.364 17.3914 46.5759C17.8699 46.7794 18.3821 46.8812 18.9278 46.8812C19.4651 46.8812 19.9731 46.7794 20.4516 46.5759C20.9301 46.364 21.3457 46.0799 21.6983 45.7239C22.0593 45.3677 22.3406 44.9523 22.542 44.4775C22.752 43.9942 22.8569 43.477 22.8569 42.9259V31.2507H25.4259V42.9259Z" fill="#212121"/>
<path d="M46.0035 49.4884H43.4219V42.3281C43.4219 41.7007 43.3043 41.1114 43.0692 40.5603C42.8341 40.0092 42.5151 39.5301 42.1121 39.1232C41.7091 38.7077 41.2348 38.3813 40.6891 38.1439C40.1517 37.898 39.5725 37.7708 38.9512 37.7624H31.8612V49.4884H29.2795V29.9535H31.8612V35.1679H38.9512C39.9251 35.1679 40.8402 35.3587 41.6966 35.7402C42.5529 36.1132 43.3001 36.6262 43.9381 37.2791C44.5762 37.9235 45.08 38.6823 45.4494 39.5556C45.8188 40.4204 46.0035 41.3446 46.0035 42.3281V49.4884Z" fill="#212121"/>
<path d="M65.9892 39.7209C65.9892 40.3569 65.8712 40.9503 65.6365 41.5015C65.4012 42.0526 65.0781 42.5358 64.6668 42.9513C64.2638 43.3583 63.7852 43.6805 63.2311 43.9179C62.6854 44.1553 62.1019 44.274 61.4807 44.274H51.5948C51.7796 44.6555 52.0105 45.0074 52.2875 45.3296C52.5645 45.6518 52.8752 45.9273 53.2194 46.1562C53.5636 46.3852 53.9372 46.5632 54.3402 46.6904C54.7516 46.8176 55.1798 46.8812 55.6247 46.8812H64.0623V49.4884H55.6247C54.6508 49.4799 53.7357 49.2891 52.8794 48.9161C52.023 48.5346 51.2758 48.0216 50.6378 47.3772C50.0081 46.7243 49.5086 45.9655 49.1391 45.1007C48.7697 44.2358 48.5851 43.3116 48.5851 42.3281C48.5851 41.3446 48.7697 40.4204 49.1391 39.5556C49.5086 38.6908 50.0081 37.9362 50.6378 37.2918C51.2758 36.6389 52.023 36.126 52.8794 35.7529C53.7357 35.3714 54.6508 35.1763 55.6247 35.1679H61.4807C62.1019 35.1679 62.6854 35.2866 63.2311 35.524C63.7852 35.7614 64.2638 36.0878 64.6668 36.5033C65.0781 36.9103 65.4012 37.3893 65.6365 37.9404C65.8712 38.4915 65.9892 39.085 65.9892 39.7209ZM61.4807 41.6795C61.7409 41.6795 61.9886 41.6286 62.2236 41.5269C62.4587 41.4252 62.6644 41.2852 62.8407 41.1072C63.017 40.9292 63.1555 40.7214 63.2563 40.484C63.357 40.2466 63.4074 39.9923 63.4074 39.7209C63.4074 39.4581 63.357 39.2079 63.2563 38.9706C63.1555 38.7332 63.017 38.5255 62.8407 38.3474C62.6644 38.1693 62.4587 38.0294 62.2236 37.9277C61.9886 37.8175 61.7409 37.7624 61.4807 37.7624H55.6247C55.0538 37.7624 54.5165 37.8641 54.0128 38.0676C53.5174 38.2711 53.0725 38.5509 52.6779 38.907C52.2917 39.2546 51.9685 39.6701 51.7082 40.1534C51.4563 40.6281 51.2926 41.1369 51.2171 41.6795H61.4807Z" fill="#212121"/>
<path d="M85.0302 39.7209C85.0302 40.3569 84.9129 40.9503 84.6775 41.5015C84.4428 42.0526 84.1191 42.5358 83.7078 42.9513C83.3048 43.3583 82.8264 43.6805 82.2725 43.9179C81.7264 44.1553 81.1428 44.274 80.5219 44.274H70.6362C70.8206 44.6555 71.0514 45.0074 71.3287 45.3296C71.6059 45.6518 71.9161 45.9273 72.2604 46.1562C72.6047 46.3852 72.9786 46.5632 73.3816 46.6904C73.793 46.8176 74.2211 46.8812 74.666 46.8812H83.1036V49.4884H74.666C73.6918 49.4799 72.7768 49.2891 71.9206 48.9161C71.0643 48.5346 70.317 48.0216 69.6787 47.3772C69.0494 46.7243 68.5497 45.9655 68.1802 45.1007C67.8107 44.2358 67.6263 43.3116 67.6263 42.3281C67.6263 41.3446 67.8107 40.4204 68.1802 39.5556C68.5497 38.6908 69.0494 37.9362 69.6787 37.2918C70.317 36.6389 71.0643 36.126 71.9206 35.7529C72.7768 35.3714 73.6918 35.1763 74.666 35.1679H80.5219C81.1428 35.1679 81.7264 35.2866 82.2725 35.524C82.8264 35.7614 83.3048 36.0878 83.7078 36.5033C84.1191 36.9103 84.4428 37.3893 84.6775 37.9404C84.9129 38.4915 85.0302 39.085 85.0302 39.7209ZM80.5219 41.6795C80.7818 41.6795 81.03 41.6286 81.2647 41.5269C81.5001 41.4252 81.7057 41.2852 81.8818 41.1072C82.0584 40.9292 82.1964 40.7214 82.2976 40.484C82.3982 40.2466 82.4485 39.9923 82.4485 39.7209C82.4485 39.4581 82.3982 39.2079 82.2976 38.9706C82.1964 38.7332 82.0584 38.5255 81.8818 38.3474C81.7057 38.1693 81.5001 38.0294 81.2647 37.9277C81.03 37.8175 80.7818 37.7624 80.5219 37.7624H74.666C74.0948 37.7624 73.5577 37.8641 73.0541 38.0676C72.5589 38.2711 72.1134 38.5509 71.7188 38.907C71.3332 39.2546 71.0095 39.6701 70.7496 40.1534C70.4975 40.6281 70.3338 41.1369 70.2583 41.6795H80.5219Z" fill="#212121"/>
<path d="M92.6238 49.4884H91.9816C91.3523 49.4884 90.7643 49.3697 90.2188 49.1323C89.6733 48.8948 89.1942 48.5727 88.7829 48.1657C88.3715 47.7502 88.0484 47.2669 87.8131 46.7159C87.5784 46.1562 87.4611 45.5628 87.4611 44.9353V29.9535H90.0421V44.9353C90.0421 45.2067 90.093 45.461 90.1936 45.6984C90.2942 45.9273 90.4328 46.1309 90.6089 46.3089C90.7855 46.4869 90.9912 46.6268 91.2259 46.7286C91.4613 46.8303 91.7134 46.8812 91.9816 46.8812H92.6238V49.4884Z" fill="#212121"/>
<path d="M109.676 44.9353C109.676 45.5628 109.558 46.1563 109.323 46.7159C109.088 47.2669 108.765 47.7502 108.353 48.1657C107.95 48.5727 107.472 48.8948 106.917 49.1323C106.372 49.3697 105.788 49.4884 105.167 49.4884H94.1984V46.8812H105.167C105.427 46.8812 105.675 46.8303 105.91 46.7286C106.145 46.6268 106.351 46.4869 106.527 46.3089C106.703 46.1309 106.842 45.9273 106.942 45.6984C107.044 45.461 107.094 45.2067 107.094 44.9353C107.094 44.6725 107.044 44.4224 106.942 44.185C106.842 43.9476 106.703 43.7398 106.527 43.5618C106.351 43.3837 106.145 43.2439 105.91 43.1421C105.675 43.0318 105.427 42.9768 105.167 42.9768H98.0645C97.5274 42.9768 97.0231 42.875 96.5531 42.6715C96.0831 42.4681 95.6717 42.1925 95.319 41.8448C94.9747 41.4887 94.7019 41.0733 94.5001 40.5985C94.299 40.1237 94.1984 39.6149 94.1984 39.0723C94.1984 38.5297 94.299 38.0209 94.5001 37.5462C94.7019 37.0714 94.9747 36.6601 95.319 36.3125C95.6717 35.9564 96.0831 35.6766 96.5531 35.4731C97.0231 35.2697 97.5274 35.1679 98.0645 35.1679H108.391V37.7624H98.0645C97.7034 37.7624 97.3971 37.8895 97.145 38.1439C96.9013 38.3898 96.7801 38.6993 96.7801 39.0723C96.7801 39.4369 96.9013 39.7464 97.145 40.0007C97.3971 40.2466 97.7034 40.3696 98.0645 40.3696H105.167C105.788 40.3696 106.372 40.4883 106.917 40.7257C107.472 40.9631 107.95 41.2895 108.353 41.705C108.765 42.1204 109.088 42.6037 109.323 43.1548C109.558 43.7059 109.676 44.2994 109.676 44.9353Z" fill="#212121"/>
<path d="M25.1464 9.11627C26.2147 9.11627 27.0807 8.24166 27.0807 7.16278C27.0807 6.0839 26.2147 5.20929 25.1464 5.20929C24.0781 5.20929 23.212 6.0839 23.212 7.16278C23.212 8.24166 24.0781 9.11627 25.1464 9.11627Z" fill="#DD2255"/>
<path d="M68.8141 31.2815C69.7198 30.7093 69.9947 29.504 69.4281 28.5894C68.8615 27.6747 67.668 27.3971 66.7623 27.9693C65.8566 28.5415 65.5817 29.7468 66.1483 30.6615C66.7149 31.5761 67.9084 31.8537 68.8141 31.2815Z" fill="#DD2255"/>
<path d="M78.0396 27.7573C79.8509 26.6129 80.4007 24.2023 79.2675 22.373C78.1344 20.5437 75.7474 19.9885 73.936 21.1329C72.1246 22.2773 71.5749 24.6879 72.708 26.5172C73.8412 28.3465 76.2282 28.9017 78.0396 27.7573Z" fill="#DD2255"/>
<path d="M90.5445 22.1611C93.2615 20.4445 94.0862 16.8286 92.3864 14.0846C90.6867 11.3407 87.1062 10.5079 84.3891 12.2245C81.6721 13.941 80.8474 17.557 82.5472 20.301C84.2469 23.0449 87.8275 23.8777 90.5445 22.1611Z" fill="#DD2255"/>
</svg>
